<svg width="200" height="200" viewBox="0 0 200 200" fill="none" xmlns="http://www.w3.org/2000/svg">
<path d="M100 188C133.137 188 160 184.418 160 180C160 175.582 133.137 172 100 172C66.8629 172 40 175.582 40 180C40 184.418 66.8629 188 100 188Z" fill="#E5E7EB"/>
<path d="M70.0001 80V150C70.0001 160 75.0001 165 85.0001 165H115C125 165 130 160 130 150V80H70.0001Z" fill="#2563EB"/>
<path d="M137 70H63C61.3431 70 60 71.3431 60 73V82C60 83.6568 61.3431 85 63 85H137C138.657 85 140 83.6568 140 82V73C140 71.3431 138.657 70 137 70Z" fill="#1D4ED8"/>
<path opacity="0.9" d="M100 135C113.807 135 125 123.807 125 110C125 96.1929 113.807 85 100 85C86.1929 85 75 96.1929 75 110C75 123.807 86.1929 135 100 135Z" fill="white"/>
<path d="M100 108C103.314 108 106 105.314 106 102C106 98.6864 103.314 96 100 96C96.6864 96 94 98.6864 94 102C94 105.314 96.6864 108 100 108Z" fill="#2563EB"/>
<path d="M93.0002 120C96.314 120 99.0004 117.314 99.0004 114C99.0004 110.686 96.314 108 93.0002 108C89.6863 108 87 110.686 87 114C87 117.314 89.6863 120 93.0002 120Z" fill="#2563EB"/>
<path d="M107 120C110.314 120 113 117.314 113 114C113 110.686 110.314 108 107 108C103.686 108 101 110.686 101 114C101 117.314 103.686 120 107 120Z" fill="#2563EB"/>
<path d="M100 114C102.209 114 104 112.209 104 110C104 107.791 102.209 106 100 106C97.791 106 96 107.791 96 110C96 112.209 97.791 114 100 114Z" fill="white"/>
<path opacity="0.8" d="M104 72H96C95.4477 72 95 72.4478 95 73.0001V75.0001C95 75.5524 95.4477 76.0002 96 76.0002H104C104.553 76.0002 105 75.5524 105 75.0001V73.0001C105 72.4478 104.553 72 104 72Z" fill="white"/>
<path opacity="0.8" d="M101.5 69.4999H98.5001C97.9478 69.4999 97.5001 69.9477 97.5001 70.5V77.5002C97.5001 78.0525 97.9478 78.5003 98.5001 78.5003H101.5C102.053 78.5003 102.5 78.0525 102.5 77.5002V70.5C102.5 69.9477 102.053 69.4999 101.5 69.4999Z" fill="white"/>
</svg>
